<?xml version="1.0" encoding="UTF-8" standalone="no"?>
<!-- Created with Inkscape (http://www.inkscape.org/) -->

<svg
   xmlns:dc="http://purl.org/dc/elements/1.1/"
   xmlns:cc="http://creativecommons.org/ns#"
   xmlns:rdf="http://www.w3.org/1999/02/22-rdf-syntax-ns#"
   xmlns:svg="http://www.w3.org/2000/svg"
   xmlns="http://www.w3.org/2000/svg"
   xmlns:sodipodi="http://sodipodi.sourceforge.net/DTD/sodipodi-0.dtd"
   xmlns:inkscape="http://www.inkscape.org/namespaces/inkscape"
   width="100"
   height="100"
   viewBox="0 0 26.458333 26.458333"
   version="1.1"
   id="svg8"
   inkscape:version="0.92.4 (5da689c313, 2019-01-14)"
   sodipodi:docname="avto-logo.svg">
  <defs
     id="defs2" />
  <sodipodi:namedview
     id="base"
     pagecolor="#ffffff"
     bordercolor="#666666"
     borderopacity="1.0"
     inkscape:pageopacity="0.0"
     inkscape:pageshadow="2"
     inkscape:zoom="8"
     inkscape:cx="25.383465"
     inkscape:cy="54.82921"
     inkscape:document-units="mm"
     inkscape:current-layer="layer1"
     showgrid="false"
     units="px"
     inkscape:window-width="1858"
     inkscape:window-height="1057"
     inkscape:window-x="54"
     inkscape:window-y="-8"
     inkscape:window-maximized="1" />
  <metadata
     id="metadata5">
    <rdf:RDF>
      <cc:Work
         rdf:about="">
        <dc:format>image/svg+xml</dc:format>
        <dc:type
           rdf:resource="http://purl.org/dc/dcmitype/StillImage" />
        <dc:title></dc:title>
      </cc:Work>
    </rdf:RDF>
  </metadata>
  <g
     inkscape:label="Layer 1"
     inkscape:groupmode="layer"
     id="layer1"
     transform="translate(0,-270.54168)"
     style="display:inline">
    <path
       style="display:inline;opacity:1;vector-effect:none;fill:#7c7c7c;fill-opacity:1;fill-rule:nonzero;stroke:#000000;stroke-width:0;stroke-linecap:butt;stroke-linejoin:miter;stroke-miterlimit:4;stroke-dasharray:none;stroke-dashoffset:0;stroke-opacity:1;paint-order:normal"
       d="m 13.05031,282.98546 c 0,0 0.900237,-1.22996 2.544593,-1.86451 -3.315525,-0.53249 -5.9969341,0.9263 -8.7032508,2.0902 1.7143201,0.50018 4.3846888,-0.1213 6.1586578,-0.22572 z"
       id="path826"
       inkscape:connector-curvature="0"
       sodipodi:nodetypes="ccccc" />
    <path
       style="opacity:1;vector-effect:none;fill:#7c7c7c;fill-opacity:1;fill-rule:nonzero;stroke:#000000;stroke-width:0;stroke-linecap:butt;stroke-linejoin:miter;stroke-miterlimit:4;stroke-dasharray:none;stroke-dashoffset:0;stroke-opacity:1;paint-order:normal"
       d="m 13.912592,282.75889 c 2.62261,-2.22382 4.444775,-2.28225 7.626189,-0.95132 -1.08591,-0.31161 -1.326467,0.28065 -1.950147,0.49143 l -3.947862,1.03056 z"
       id="path828"
       inkscape:connector-curvature="0"
       sodipodi:nodetypes="ccccc" />
    <path
       style="opacity:1;vector-effect:none;fill:#7c7c7c;fill-opacity:1;fill-rule:nonzero;stroke:#000000;stroke-width:0;stroke-linecap:butt;stroke-linejoin:miter;stroke-miterlimit:4;stroke-dasharray:none;stroke-dashoffset:0;stroke-opacity:1;paint-order:normal"
       d="m 20.936295,281.95027 1.014712,0.17445 -0.856163,0.96714 -4.375942,1.49038 3.979572,-1.55379 0.808598,-0.72933 z"
       id="path830"
       inkscape:connector-curvature="0" />
    <path
       style="opacity:1;vector-effect:none;fill:#7c7c7c;fill-opacity:1;fill-rule:nonzero;stroke:#000000;stroke-width:0;stroke-linecap:butt;stroke-linejoin:miter;stroke-miterlimit:4;stroke-dasharray:none;stroke-dashoffset:0;stroke-opacity:1;paint-order:normal"
       d="m 22.569347,284.60993 c -0.008,-0.42809 0.277873,-1.64603 0.903729,-1.86691 0.761771,-0.22254 1.036115,1.1586 0.891836,1.47451 0,0 0.01985,-1.17328 -0.764998,-1.20498 -0.622304,-0.0237 -1.030567,1.59738 -1.030567,1.59738 z"
       id="path832"
       inkscape:connector-curvature="0"
       sodipodi:nodetypes="ccccc" />
    <path
       style="opacity:1;vector-effect:none;fill:#7c7c7c;fill-opacity:1;fill-rule:nonzero;stroke:#000000;stroke-width:0;stroke-linecap:butt;stroke-linejoin:miter;stroke-miterlimit:4;stroke-dasharray:none;stroke-dashoffset:0;stroke-opacity:1;paint-order:normal"
       d="m 23.393094,283.16143 c 0.207968,-0.0628 0.859331,-0.10596 0.867179,0.85539 0,1.03994 -0.596431,1.34591 -0.725919,1.34591 0,0 0.506182,-0.4819 0.506182,-1.31451 0,-0.78524 -0.647442,-0.88679 -0.647442,-0.88679 z"
       id="path834"
       inkscape:connector-curvature="0"
       sodipodi:nodetypes="ccccc" />
    <path
       style="display:inline;opacity:1;vector-effect:none;fill:#7c7c7c;fill-opacity:1;fill-rule:nonzero;stroke:#000000;stroke-width:0;stroke-linecap:butt;stroke-linejoin:miter;stroke-miterlimit:4;stroke-dasharray:none;stroke-dashoffset:0;stroke-opacity:1;paint-order:normal"
       d="m 17.581829,286.62622 3.586426,-1.26742 -0.286445,0.66314 -5.105875,1.17392 c 0.227517,-0.8185 0.0736,-1.67198 0.06234,-1.7512 -0.112664,-0.79511 -0.960969,-1.80844 -1.827182,-1.60047 0.48359,-0.019 1.496227,0.53395 1.640184,1.7422 0.111202,0.93273 -0.149111,1.94624 -0.149111,1.94624 l 5.276367,-1.22464 1.292964,-0.63816 0.299656,-1.11539 z"
       id="path836"
       inkscape:connector-curvature="0"
       sodipodi:nodetypes="cccccccccccc" />
    <path
       style="display:inline;opacity:1;vector-effect:none;fill:#7c7c7c;fill-opacity:1;fill-rule:nonzero;stroke:#000000;stroke-width:0;stroke-linecap:butt;stroke-linejoin:miter;stroke-miterlimit:4;stroke-dasharray:none;stroke-dashoffset:0;stroke-opacity:1;paint-order:normal"
       d="m 13.481339,284.04391 c 0.337454,-0.0471 2.018528,0.27632 2.033306,2.06143 0.02802,2.58957 -1.715425,3.12057 -1.87238,3.10487 0,0 1.498244,-0.53843 1.542679,-2.94662 -0.01671,-2.0976 -1.703605,-2.21968 -1.703605,-2.21968 z"
       id="path838"
       inkscape:connector-curvature="0"
       sodipodi:nodetypes="ccccc" />
    <path
       style="opacity:1;vector-effect:none;fill:#7c7c7c;fill-opacity:1;fill-rule:nonzero;stroke:#000000;stroke-width:0;stroke-linecap:butt;stroke-linejoin:miter;stroke-miterlimit:4;stroke-dasharray:none;stroke-dashoffset:0;stroke-opacity:1;paint-order:normal"
       d="m 11.146667,285.555 -2.0325673,0.69845 -1.4596849,0.24329 1.5617042,-0.0706 z"
       id="path842"
       inkscape:connector-curvature="0"
       sodipodi:nodetypes="ccccc" />
    <path
       style="display:inline;opacity:1;vector-effect:none;fill:#7c7c7c;fill-opacity:1;fill-rule:nonzero;stroke:#000000;stroke-width:0;stroke-linecap:butt;stroke-linejoin:miter;stroke-miterlimit:4;stroke-dasharray:none;stroke-dashoffset:0;stroke-opacity:1;paint-order:normal"
       d="m 8.6903213,288.23107 0.4002344,-0.23543 -1.734354,-1.36549 -3.7355335,0.0784 c -1.5432181,0 -1.1797989,-0.56686 -1.1797989,-0.56686 0,0 -0.5610237,0.55612 0.6483583,0.7057 l -0.1061901,0.25375 c 0,0 0.789297,0.37432 1.2105158,0.46307 l 0.8004714,1.17717 2.13459,0.008 -0.8083195,-1.31841 0.5336481,-0.40024 z"
       id="path844"
       inkscape:connector-curvature="0"
       sodipodi:nodetypes="ccccccccccccc" />
    <path
       style="opacity:1;vector-effect:none;fill:#7c7c7c;fill-opacity:1;fill-rule:nonzero;stroke:#000000;stroke-width:0;stroke-linecap:butt;stroke-linejoin:miter;stroke-miterlimit:4;stroke-dasharray:none;stroke-dashoffset:0;stroke-opacity:1;paint-order:normal"
       d="m 2.4742156,286.8631 -0.450566,0.43802 c 0.2982149,1.25172 2.8016497,1.44399 2.8016497,1.44399 L 4.7075825,288.50575 C 2.8908264,288.31744 2.2904729,287.66211 2.188452,287.34036 Z"
       id="path848"
       inkscape:connector-curvature="0"
       sodipodi:nodetypes="cccccc" />
    <path
       style="opacity:1;vector-effect:none;fill:#7c7c7c;fill-opacity:1;fill-rule:nonzero;stroke:#000000;stroke-width:0;stroke-linecap:butt;stroke-linejoin:miter;stroke-miterlimit:4;stroke-dasharray:none;stroke-dashoffset:0;stroke-opacity:1;paint-order:normal"
       d="m 7.5547908,288.74409 1.4594399,-0.21079 2.1641893,-0.56603 c -0.260812,-3.76791 2.053205,-4.23959 2.053205,-4.23959 0,0 -2.286273,1.10429 -1.614819,4.48377 l -2.9854708,0.54382 z"
       id="path850"
       inkscape:connector-curvature="0"
       sodipodi:nodetypes="ccccccc" />
    <path
       style="opacity:1;vector-effect:none;fill:#7c7c7c;fill-opacity:1;fill-rule:nonzero;stroke:#000000;stroke-width:0;stroke-linecap:butt;stroke-linejoin:miter;stroke-miterlimit:4;stroke-dasharray:none;stroke-dashoffset:0;stroke-opacity:1;paint-order:normal"
       d="m 10.122955,284.42642 -2.1131302,1.24896 -1.4261446,0.24417 -0.088787,-0.41341 c -2.0643034,0.82127 -3.0957819,0.34435 -3.1075535,0.25803 -0.049048,-0.30412 0.1077659,-0.50738 0.1077659,-0.50738 0,0 -0.084364,0.29823 0.031391,0.37277 0.6749072,0.69059 6.5964584,-1.20314 6.5964584,-1.20314 z"
       id="path852"
       inkscape:connector-curvature="0"
       sodipodi:nodetypes="cccccccc" />
  </g>
</svg>
