<?xml version="1.0" encoding="UTF-8" standalone="no"?><!-- Generator: Gravit.io --><svg xmlns="http://www.w3.org/2000/svg" xmlns:xlink="http://www.w3.org/1999/xlink" style="isolation:isolate" viewBox="0 0 100 100" width="100pt" height="100pt"><defs><clipPath id="_clipPath_epVv3p9oCwe4ujgZBH4zhhTyL9O6hPUo"><rect width="100" height="100"/></clipPath></defs><g clip-path="url(#_clipPath_epVv3p9oCwe4ujgZBH4zhhTyL9O6hPUo)"><path d=" M 50.002 15.25 C 36.571 15.25 32.513 16.891 32.513 16.891 C 29.687 17.914 25.829 19.384 24.266 22.635 C 23.487 24.271 20.473 33.415 17.898 41.5 L 14.648 41.5 C 13.181 41.5 11.65 42.769 11.15 44.37 L 10.151 47.38 C 9.651 48.986 10.431 50.25 11.902 50.25 L 15.148 50.25 C 15.056 50.526 14.524 52.302 14.524 52.302 C 14.273 52.783 14.025 55.001 14.025 55.583 L 14.025 82.104 C 14.025 83.811 15.336 85.25 16.899 85.25 L 27.136 85.25 C 28.696 85.25 30.011 83.815 30.011 82.104 L 30.011 76.5 L 69.986 76.5 L 69.986 82.104 C 69.986 83.811 71.297 85.25 72.86 85.25 L 83.102 85.25 C 84.661 85.25 85.976 83.815 85.976 82.104 L 85.976 55.587 C 85.976 55.006 85.724 52.787 85.476 52.306 C 85.476 52.306 84.944 50.526 84.852 50.254 L 88.098 50.254 C 89.565 50.254 90.349 48.986 89.849 47.384 L 88.85 44.374 C 88.35 42.769 86.819 41.504 85.352 41.504 L 82.102 41.504 C 79.56 33.66 76.546 24.792 75.606 22.499 C 74.235 19.152 69.89 17.63 67.487 16.895 C 67.487 16.895 63.426 15.254 49.998 15.254 L 50.002 15.25 Z  M 50.002 21.677 C 70.318 21.677 70.817 25.588 70.865 25.641 C 71.489 27.692 74.003 33.909 75.986 42.729 C 75.986 42.729 67.367 45.875 50.002 45.875 C 32.637 45.875 24.018 42.729 24.018 42.729 C 26.125 33.161 28.392 27.693 28.891 26.187 C 29.295 25.094 29.687 21.677 50.002 21.677 Z  M 20.145 53.942 C 20.553 53.89 20.956 53.942 21.396 53.942 C 23.127 53.942 26.625 55.561 28.891 56.677 C 31.358 57.889 34.136 58.899 34.136 60.912 C 34.136 62.776 33.249 63.646 30.015 63.646 L 25.641 63.646 C 21.816 63.646 18.022 63.034 18.022 60.365 L 18.022 57.224 C 18.022 54.883 18.93 54.113 20.145 53.942 Z  M 78.608 53.942 C 80.391 53.942 81.982 54.113 81.982 57.224 L 81.982 60.365 C 81.982 63.034 78.185 63.646 74.363 63.646 L 69.99 63.646 C 66.772 63.646 65.868 62.776 65.868 60.912 C 65.868 58.899 68.647 57.893 71.113 56.677 C 73.38 55.566 76.877 53.942 78.608 53.942 Z " fill="rgb(67,160,71)"/></g></svg>