<?xml version="1.0" encoding="UTF-8" standalone="no"?><!-- Generator: Gravit.io --><svg xmlns="http://www.w3.org/2000/svg" xmlns:xlink="http://www.w3.org/1999/xlink" style="isolation:isolate" viewBox="0 0 100 100" width="100pt" height="100pt"><defs><clipPath id="_clipPath_ZVuCmkOQR9vR5b4tXpDKF4Eq4fn1tPhi"><rect width="100" height="100"/></clipPath></defs><g clip-path="url(#_clipPath_ZVuCmkOQR9vR5b4tXpDKF4Eq4fn1tPhi)"><g><path d=" M 56.338 12.385 C 34.924 12.385 17.551 28.88 17.551 49.217 C 17.551 69.553 34.924 86.051 56.338 86.051 C 77.752 86.051 95.125 69.553 95.125 49.217 C 95.125 28.88 77.749 12.382 56.338 12.382 L 56.338 12.385 Z  M 56.338 20.29 C 73.13 20.29 86.8 33.27 86.8 49.217 C 86.8 65.163 73.13 78.146 56.338 78.146 C 39.546 78.146 25.876 65.163 25.876 49.217 C 25.879 33.27 39.549 20.287 56.338 20.287 L 56.338 20.29 Z  M 56.338 23.614 C 49.187 23.61 42.328 26.307 37.271 31.109 C 32.214 35.911 29.375 42.425 29.378 49.217 C 29.375 56.008 32.214 62.522 37.271 67.324 C 42.328 72.126 49.187 74.823 56.338 74.82 C 63.489 74.823 70.348 72.126 75.405 67.324 C 80.462 62.522 83.301 56.008 83.298 49.217 C 83.301 42.425 80.462 35.911 75.405 31.109 C 70.348 26.307 63.489 23.61 56.338 23.614 L 56.338 23.614 Z  M 53.689 29.093 L 53.689 29.182 L 53.026 40.322 C 51.846 40.716 50.744 41.276 49.812 42.03 L 39.31 37.088 C 42.704 32.787 47.786 29.789 53.689 29.093 Z  M 59.081 29.093 C 64.72 29.796 69.829 32.61 73.272 36.91 L 62.771 41.94 C 61.87 41.236 60.845 40.688 59.744 40.322 L 59.081 29.182 L 59.081 29.093 Z  M 75.921 41.311 C 75.933 41.299 76.002 41.322 76.015 41.311 C 78.279 46.362 78.279 52.071 76.015 57.122 C 76.002 57.111 75.933 57.134 75.921 57.122 L 66.176 51.013 C 66.282 50.438 66.367 49.823 66.367 49.217 C 66.367 48.613 66.294 47.992 66.176 47.42 L 75.921 41.311 Z  M 36.568 41.492 C 36.58 41.501 36.649 41.48 36.662 41.492 L 46.5 47.509 C 46.388 48.072 46.324 48.643 46.309 49.217 C 46.309 49.792 46.394 50.384 46.5 50.924 L 36.662 56.944 C 36.649 56.953 36.58 56.933 36.568 56.944 C 34.426 51.993 34.426 46.44 36.568 41.489 L 36.568 41.492 Z  M 56.338 44.723 C 58.963 44.723 61.069 46.724 61.069 49.217 C 61.069 51.709 58.963 53.71 56.338 53.71 C 55.082 53.714 53.875 53.243 52.987 52.399 C 52.099 51.555 51.602 50.41 51.607 49.217 C 51.607 46.724 53.714 44.723 56.338 44.723 Z  M 49.812 56.404 C 50.744 57.168 51.846 57.717 53.026 58.111 L 53.689 69.251 L 53.689 69.34 C 47.786 68.645 42.704 65.646 39.31 61.345 L 49.812 56.404 Z  M 62.771 56.493 L 73.272 61.524 C 69.829 65.823 64.72 68.637 59.081 69.34 L 59.081 69.251 L 59.744 58.111 C 60.845 57.745 61.87 57.197 62.771 56.493 Z " fill="rgb(67,160,71)"/><g><path d="M 9.867 19.29 L 25.203 19.29 L 31.29 25.376 L 31.29 73.668 L 24.277 80.68 L 10.442 80.68 C 7.676 80.68 5.43 78.434 5.43 75.669 L 5.43 23.726 C 5.43 21.278 7.418 19.29 9.867 19.29 Z" style="stroke:none;fill:#43A047;stroke-miterlimit:10;"/><ellipse vector-effect="non-scaling-stroke" cx="10.763388881131696" cy="24.42976261958753" rx="2.262571945716772" ry="2.0719619939876885" fill="rgb(255,255,255)"/><ellipse vector-effect="non-scaling-stroke" cx="10.763388881131696" cy="72.31510648063632" rx="2.262571945716772" ry="2.071961993987685" fill="rgb(255,255,255)"/></g><rect x="-0.07" y="12.352" width="37.666" height="2.361" transform="matrix(0.725,0.689,-0.726,0.69,14.984,-8.719)" fill="rgb(255,255,255)"/><rect x="9.21" y="47.697" width="46.349" height="2.424" transform="matrix(0.013,1,-1,0.011,80.879,15.968)" fill="rgb(255,255,255)"/><rect x="-0.42" y="83.97" width="39.077" height="2.364" transform="matrix(0.708,-0.707,0.743,0.671,-57.683,41.503)" fill="rgb(255,255,255)"/></g></g></svg>