<?xml version="1.0" encoding="UTF-8" standalone="no"?><!-- Generator: Gravit.io --><svg xmlns="http://www.w3.org/2000/svg" xmlns:xlink="http://www.w3.org/1999/xlink" style="isolation:isolate" viewBox="0 0 100 100" width="100pt" height="100pt"><defs><clipPath id="_clipPath_MVKa9nv3wP0sj7Bb6siUsYBn6Vls2I7W"><rect width="100" height="100"/></clipPath></defs><g clip-path="url(#_clipPath_MVKa9nv3wP0sj7Bb6siUsYBn6Vls2I7W)"><g><path d=" M 88.394 41.53 L 81.996 41.53 C 81.108 41.53 80.389 42.222 80.389 43.075 L 80.389 49.222 L 78.802 49.222 L 78.802 38.218 C 78.802 35.803 76.783 33.839 74.302 33.839 L 41.982 33.839 C 40.789 33.839 39.622 34.312 38.718 35.208 L 31.663 43.068 L 27.599 43.068 C 25.129 43.068 22.793 45.314 22.793 47.689 L 22.793 66.149 C 22.793 68.567 25.084 70.77 27.599 70.77 L 31.664 70.77 L 38.792 78.708 C 39.629 79.528 40.792 80 41.984 80 L 62.55 80 C 63.741 80 64.904 79.528 65.741 78.708 L 77.489 67.203 C 78.335 66.38 78.801 65.282 78.801 64.112 L 78.801 61.54 L 80.388 61.54 L 80.388 67.687 C 80.388 68.541 81.106 69.232 81.994 69.232 L 88.394 69.232 C 89.282 69.232 90 68.541 90 67.687 L 90 43.075 C 90 42.222 89.282 41.53 88.394 41.53 Z  M 61.197 55.381 L 48.398 72.302 L 53.197 58.458 L 45.198 58.458 L 53.197 43.075 L 61.197 43.075 L 53.197 55.381 L 61.197 55.381 Z  M 21.193 52.304 L 19.599 52.304 L 19.599 44.613 C 19.599 43.763 18.883 43.075 18 43.075 L 11.6 43.075 C 10.716 43.075 10 43.763 10 44.613 L 10 69.226 C 10 70.075 10.716 70.764 11.6 70.764 L 18 70.764 C 18.883 70.764 19.599 70.075 19.599 69.226 L 19.599 61.534 L 21.193 61.534 L 21.193 52.304 Z " fill="rgb(67,160,71)"/><path d=" M 24.399 61.534 C 25.283 61.534 25.999 60.845 25.999 59.996 L 25.999 53.843 C 25.999 52.993 25.283 52.304 24.399 52.304 L 22.793 52.304 L 22.793 61.534 L 24.399 61.534 Z  M 49.998 33.845 C 49.998 34.694 50.714 35.383 51.598 35.383 L 57.997 35.383 C 58.881 35.383 59.597 34.694 59.597 33.845 L 59.597 33.839 L 49.998 33.839 L 49.998 33.845 Z  M 43.598 29.23 L 49.998 29.23 L 49.998 32.3 L 59.597 32.3 L 59.597 29.23 L 65.997 29.23 C 66.88 29.23 67.597 28.541 67.597 27.692 L 67.597 21.538 C 67.597 20.689 66.88 20 65.997 20 L 43.598 20 C 42.714 20 41.998 20.689 41.998 21.538 L 41.998 27.692 C 41.998 28.541 42.714 29.23 43.598 29.23 Z " fill="rgb(67,160,71)"/></g></g></svg>