<?xml version="1.0" encoding="UTF-8" standalone="no"?><!-- Generator: Gravit.io --><svg xmlns="http://www.w3.org/2000/svg" xmlns:xlink="http://www.w3.org/1999/xlink" style="isolation:isolate" viewBox="0 0 100 100" width="100pt" height="100pt"><defs><clipPath id="_clipPath_5GuvU0zs2a40p9QisZ0s2gn7k9ylcZwz"><rect width="100" height="100"/></clipPath></defs><g clip-path="url(#_clipPath_5GuvU0zs2a40p9QisZ0s2gn7k9ylcZwz)"><path d=" M 45.222 6.942 C 42.669 6.968 40.312 8.317 38.996 10.505 L 38.519 11.294 C 37.847 12.409 36.648 13.099 35.347 13.119 L 34.428 13.14 C 30.466 13.212 27.271 16.408 27.2 20.371 L 27.182 21.287 C 27.158 22.589 26.467 23.787 25.352 24.459 L 24.565 24.931 C 21.17 26.977 20.003 31.342 21.924 34.81 L 22.365 35.611 C 22.993 36.76 22.993 38.123 22.365 39.271 L 21.924 40.077 C 20.005 43.544 21.174 47.908 24.568 49.952 L 25.354 50.427 C 26.469 51.097 27.161 52.295 27.184 53.596 L 27.202 54.514 C 27.275 58.475 30.468 61.669 34.428 61.744 L 35.347 61.762 C 36.653 61.791 37.841 62.471 38.519 63.592 L 38.991 64.378 C 41.036 67.772 45.4 68.939 48.866 67.019 L 49.673 66.578 C 50.811 65.947 52.195 65.947 53.333 66.578 L 54.137 67.019 C 57.603 68.937 61.965 67.77 64.011 64.378 L 64.487 63.589 C 65.158 62.474 66.357 61.784 67.659 61.764 L 68.574 61.743 C 72.536 61.67 75.731 58.475 75.804 54.512 L 75.822 53.596 C 75.845 52.294 76.534 51.096 77.648 50.424 L 78.438 49.952 C 81.83 47.906 82.997 43.543 81.079 40.077 L 80.637 39.27 C 80.008 38.132 80.008 36.75 80.637 35.611 L 81.079 34.81 C 82.997 31.341 81.829 26.977 78.434 24.931 L 77.648 24.459 C 76.533 23.788 75.842 22.589 75.818 21.287 L 75.8 20.369 C 75.728 16.408 72.535 13.214 68.574 13.14 L 67.655 13.119 C 66.353 13.097 65.154 12.405 64.483 11.289 L 64.011 10.508 C 61.967 7.114 57.604 5.945 54.137 7.864 L 53.329 8.305 C 52.191 8.936 50.808 8.936 49.669 8.305 L 48.866 7.864 C 47.751 7.247 46.496 6.929 45.222 6.942 Z  M 64.568 25.037 L 67.592 26.971 L 50.527 53.644 L 35.498 40.118 L 37.902 37.456 L 49.784 48.149 L 64.568 25.037 Z  M 72.336 64.61 C 71.157 65.061 69.909 65.306 68.647 65.334 L 67.729 65.352 C 67.656 65.35 67.588 65.389 67.553 65.453 L 67.078 66.239 C 65.315 69.177 62.27 71.112 58.861 71.459 L 58.344 72.64 L 53.512 83.681 L 57.144 91.982 C 57.429 92.637 58.076 93.061 58.791 93.059 C 59.329 93.059 59.849 92.813 60.19 92.386 L 66.834 84.088 L 78.531 84.088 C 79.143 84.088 79.713 83.776 80.042 83.26 C 80.371 82.744 80.414 82.096 80.157 81.54 L 72.338 64.61 L 72.336 64.61 Z  M 30.76 64.64 L 22.964 81.54 C 22.708 82.097 22.749 82.743 23.079 83.257 C 23.407 83.775 23.977 84.088 24.59 84.088 L 36.287 84.088 L 42.925 92.386 C 43.318 92.876 43.938 93.126 44.561 93.043 C 45.183 92.96 45.717 92.558 45.968 91.982 L 55.057 71.203 C 54.135 70.974 53.246 70.628 52.413 70.173 L 51.6 69.728 C 51.569 69.71 51.534 69.7 51.498 69.699 C 51.464 69.701 51.431 69.71 51.402 69.728 L 50.597 70.169 C 48.975 71.062 47.154 71.533 45.303 71.537 C 41.461 71.551 37.897 69.539 35.925 66.242 L 35.449 65.453 C 35.415 65.389 35.346 65.35 35.274 65.352 L 34.355 65.334 C 33.126 65.305 31.911 65.071 30.76 64.64 Z " fill="rgb(255,255,255)"/></g></svg>