<?xml version="1.0" encoding="UTF-8" standalone="no"?><!-- Generator: Gravit.io --><svg xmlns="http://www.w3.org/2000/svg" xmlns:xlink="http://www.w3.org/1999/xlink" style="isolation:isolate" viewBox="0 0 100 100" width="100pt" height="100pt"><defs><clipPath id="_clipPath_wXKxP0GAwzE6q9BgASSTXeX0J1Ay7A0t"><rect width="100" height="100"/></clipPath></defs><g clip-path="url(#_clipPath_wXKxP0GAwzE6q9BgASSTXeX0J1Ay7A0t)"><g><path d=" M 15.045 89.367 L 15.045 8.633 L 63.062 8.633 L 86.741 29.993 L 86.741 89.367 L 15.045 89.367 Z " fill="rgb(255,255,255)"/><path d=" M 61.693 11.517 L 83.482 31.175 L 83.482 86.483 L 18.304 86.483 L 18.304 11.517 L 61.693 11.517 Z  M 64.43 5.75 L 11.786 5.75 L 11.786 92.25 L 90 92.25 L 90 28.817 L 64.43 5.75 Z " fill="rgb(67,160,71)"/><path d=" M 46.05 92.25 L 90 92.25 L 90 43.839 C 87.916 42.896 85.733 42.137 83.482 41.573 L 83.482 86.483 L 41.8 86.483 C 42.993 88.542 44.401 90.485 46.05 92.25 Z " fill="rgb(67,160,71)"/><path d=" M 60.67 31.7 L 60.67 8.633 L 62.834 8.633 L 86.741 30.005 L 86.741 31.7 L 60.67 31.7 Z " fill="rgb(255,255,255)"/><path d=" M 63.929 13.714 L 80.829 28.817 L 63.929 28.817 L 63.929 13.714 Z  M 64.189 5.75 L 57.411 5.75 L 57.411 34.583 L 90 34.583 L 90 28.817 L 64.189 5.75 Z " fill="rgb(67,160,71)"/><rect x="44.375" y="40.35" width="26.071" height="5.767" transform="matrix(1,0,0,1,0,0)" fill="rgb(67,160,71)"/><rect x="31.339" y="40.35" width="6.518" height="5.767" transform="matrix(1,0,0,1,0,0)" fill="rgb(67,160,71)"/><rect x="31.339" y="51.883" width="6.518" height="5.767" transform="matrix(1,0,0,1,0,0)" fill="rgb(67,160,71)"/><rect x="31.339" y="63.417" width="6.518" height="5.767" transform="matrix(1,0,0,1,0,0)" fill="rgb(67,160,71)"/><rect x="44.375" y="51.883" width="26.071" height="5.767" transform="matrix(1,0,0,1,0,0)" fill="rgb(67,160,71)"/><rect x="44.375" y="63.417" width="26.071" height="5.767" transform="matrix(1,0,0,1,0,0)" fill="rgb(67,160,71)"/><mask id="_mask_OsGW2MbHKbwleG8ytcovQ3sglkYNLie9" x="-200%" y="-200%" width="400%" height="400%"><rect x="-200%" y="-200%" width="400%" height="400%" style="fill:white;"/><line x1="73.705" y1="86.483" x2="73.705" y2="57.65" fill="black" stroke="none"/></mask><line x1="73.705" y1="86.483" x2="73.705" y2="57.65" mask="url(#_mask_OsGW2MbHKbwleG8ytcovQ3sglkYNLie9)" vector-effect="non-scaling-stroke" stroke-width="4.125" stroke="rgb(255,255,255)" stroke-linejoin="miter" stroke-linecap="butt" stroke-miterlimit="10"/></g></g></svg>