<?xml version="1.0" encoding="UTF-8" standalone="no"?><!-- Generator: Gravit.io --><svg xmlns="http://www.w3.org/2000/svg" xmlns:xlink="http://www.w3.org/1999/xlink" style="isolation:isolate" viewBox="0 0 100 100" width="100pt" height="100pt"><defs><clipPath id="_clipPath_0yVtB7Yp9rz1m5H7uH2BMSUt9bUbuwhU"><rect width="100" height="100"/></clipPath></defs><g clip-path="url(#_clipPath_0yVtB7Yp9rz1m5H7uH2BMSUt9bUbuwhU)"><path d=" M 46.33 7.25 C 43.901 7.25 42.26 9.003 42.26 10.827 L 42.26 17.967 L 24.898 17.967 C 19.989 17.981 16.016 21.231 16 25.242 L 16 82.228 C 16 86.224 20.018 89.5 24.898 89.5 L 77.102 89.5 C 82.009 89.485 85.982 86.238 86 82.228 L 86 25.24 C 86.009 21.243 81.991 17.967 77.102 17.967 L 59.766 17.967 L 59.766 10.827 C 59.766 9.003 58.125 7.25 55.696 7.25 L 46.33 7.25 Z  M 46.636 10.827 L 55.39 10.827 L 55.39 25.135 L 46.636 25.135 L 46.636 10.827 Z  M 24.898 21.543 L 42.26 21.543 L 42.26 25.135 C 42.26 26.959 43.901 28.712 46.33 28.712 L 55.696 28.712 C 58.125 28.712 59.766 26.959 59.766 25.135 L 59.766 21.543 L 77.102 21.543 C 79.632 21.543 81.632 23.178 81.623 25.24 L 81.623 82.226 C 81.633 83.209 81.159 84.153 80.31 84.848 C 79.46 85.542 78.304 85.929 77.102 85.921 L 24.898 85.921 C 23.696 85.929 22.54 85.542 21.69 84.848 C 20.841 84.153 20.367 83.209 20.377 82.226 L 20.377 25.24 C 20.377 23.178 22.377 21.543 24.898 21.543 Z  M 44.448 34.077 C 43.021 34.077 41.704 34.327 40.584 34.803 C 39.465 35.279 38.448 35.978 37.995 37.096 L 35.695 42.733 L 35.695 43.019 L 33.507 43.019 L 33.507 46.596 L 35.695 46.596 L 35.695 56.132 C 35.695 56.789 36.183 57.327 36.789 57.327 L 41.166 57.327 C 41.772 57.327 42.26 56.791 42.26 56.132 L 42.26 54.945 L 59.766 54.945 L 59.766 56.132 C 59.766 56.789 60.254 57.327 60.861 57.327 L 65.237 57.327 C 65.843 57.327 66.331 56.791 66.331 56.132 L 66.331 46.596 L 68.52 46.596 L 68.52 43.019 L 66.331 43.019 L 66.331 42.733 L 64.034 37.096 C 63.578 35.978 62.561 35.279 61.443 34.803 C 60.244 34.311 58.919 34.062 57.578 34.077 L 44.448 34.077 Z  M 44.448 37.654 L 57.578 37.654 C 58.34 37.654 59.014 37.808 59.434 37.983 C 59.828 38.149 59.92 38.318 59.878 38.226 L 61.834 43.019 L 40.192 43.019 L 42.148 38.226 C 42.104 38.318 42.201 38.149 42.592 37.983 C 43.013 37.808 43.687 37.654 44.448 37.654 Z  M 42.26 46.596 C 43.463 46.596 44.448 47.401 44.448 48.385 C 44.448 49.368 43.463 50.173 42.26 50.173 C 41.056 50.173 40.072 49.368 40.072 48.385 C 40.072 47.401 41.056 46.596 42.26 46.596 Z  M 59.766 46.596 C 60.97 46.596 61.955 47.401 61.955 48.385 C 61.955 49.368 60.97 50.173 59.766 50.173 C 58.563 50.173 57.578 49.368 57.578 48.385 C 57.578 47.401 58.563 46.596 59.766 46.596 Z  M 31.318 64.481 C 30.529 64.473 29.795 64.812 29.395 65.368 C 29.002 65.926 29.002 66.613 29.395 67.171 C 29.797 67.729 30.533 68.065 31.318 68.058 L 70.708 68.058 C 71.496 68.065 72.229 67.729 72.632 67.171 C 73.025 66.613 73.025 65.926 72.632 65.368 C 72.229 64.81 71.494 64.474 70.708 64.481 L 31.318 64.481 Z  M 31.318 71.635 C 30.529 71.627 29.795 71.966 29.395 72.522 C 29.002 73.08 29.002 73.767 29.395 74.325 C 29.797 74.883 30.533 75.219 31.318 75.212 L 70.708 75.212 C 71.496 75.219 72.229 74.883 72.632 74.325 C 73.025 73.767 73.025 73.08 72.632 72.522 C 72.229 71.964 71.494 71.628 70.708 71.635 L 31.318 71.635 Z " fill="rgb(67,160,71)"/></g></svg>