<?xml version="1.0" encoding="UTF-8" standalone="no"?><!-- Generator: Gravit.io --><svg xmlns="http://www.w3.org/2000/svg" xmlns:xlink="http://www.w3.org/1999/xlink" style="isolation:isolate" viewBox="0 0 100 100" width="100pt" height="100pt"><defs><clipPath id="_clipPath_goCWi4G2lXPkHqDeAf5r30itx3Jx0g3Q"><rect width="100" height="100"/></clipPath></defs><g clip-path="url(#_clipPath_goCWi4G2lXPkHqDeAf5r30itx3Jx0g3Q)"><path d=" M 13.75 17.375 C 7.587 17.375 2.875 22.088 2.875 28.25 L 2.875 71.75 C 2.875 77.913 7.587 82.625 13.75 82.625 L 86.25 82.625 C 92.413 82.625 97.125 77.913 97.125 71.75 L 97.125 28.25 C 97.125 22.088 92.413 17.375 86.25 17.375 L 13.75 17.375 Z " fill="rgb(255,255,255)"/><path d=" M 28.25 28.25 L 42.75 35.5 L 42.75 42.75 L 28.25 35.5 L 13.75 42.75 L 13.75 35.5 L 28.25 28.25 Z " fill="rgb(76,175,80)"/><path d=" M 53.625 31.875 L 86.25 31.875 L 86.25 39.125 L 53.625 39.125 L 53.625 31.875 Z " fill="rgb(76,175,80)"/><path d=" M 21.707 46.375 L 34.793 46.375 C 36.134 46.375 37.367 47.115 37.994 48.3 L 42.326 56.449 C 42.605 56.972 42.75 57.556 42.75 58.149 L 42.75 69.822 C 42.75 70.885 41.889 71.748 40.825 71.75 L 37.421 71.75 C 36.909 71.758 36.415 71.558 36.053 71.195 C 35.691 70.832 35.491 70.338 35.5 69.825 L 35.5 68.125 L 21 68.125 L 21 69.825 C 21 70.913 20.166 71.75 19.075 71.75 L 15.671 71.75 C 14.61 71.746 13.752 70.886 13.75 69.825 L 13.75 58.149 C 13.75 57.554 13.895 56.971 14.174 56.449 L 18.51 48.3 C 19.137 47.117 20.365 46.377 21.703 46.375 L 21.707 46.375 Z " fill="rgb(76,175,80)"/><path d=" M 53.625 46.375 L 75.375 46.375 L 75.375 53.625 L 53.625 53.625 L 53.625 46.375 Z " fill="rgb(76,175,80)"/><path d=" M 19.188 59.969 C 17.686 59.969 16.469 61.186 16.469 62.688 C 16.469 64.189 17.686 65.406 19.188 65.406 C 20.689 65.406 21.906 64.189 21.906 62.688 C 21.906 61.186 20.689 59.969 19.188 59.969 Z " fill="rgb(255,255,255)"/><path d=" M 37.313 59.969 C 35.811 59.969 34.594 61.186 34.594 62.688 C 34.594 64.189 35.811 65.406 37.313 65.406 C 38.814 65.406 40.031 64.189 40.031 62.688 C 40.031 61.186 38.814 59.969 37.313 59.969 Z " fill="rgb(255,255,255)"/><path d=" M 53.625 60.875 L 86.25 60.875 L 86.25 68.125 L 53.625 68.125 L 53.625 60.875 Z " fill="rgb(76,175,80)"/></g></svg>