<?xml version="1.0" encoding="UTF-8" standalone="no"?><!-- Generator: Gravit.io --><svg xmlns="http://www.w3.org/2000/svg" xmlns:xlink="http://www.w3.org/1999/xlink" style="isolation:isolate" viewBox="0 0 100 100" width="100pt" height="100pt"><defs><clipPath id="_clipPath_I4A8jfFO8WtuQMneApVg0nAIPrHyRQ61"><rect width="100" height="100"/></clipPath></defs><g clip-path="url(#_clipPath_I4A8jfFO8WtuQMneApVg0nAIPrHyRQ61)"><g><path d=" M 10 10.125 L 90 10.125 L 90 90 L 10 90 L 10 10.125 Z " fill="none"/><path d=" M 76.667 61.711 C 72.5 61.711 68.5 61.045 64.767 59.814 C 63.573 59.434 62.266 59.741 61.367 60.613 L 54.033 67.935 C 44.571 63.129 36.879 55.45 32.067 46.002 L 39.4 38.647 C 40.301 37.793 40.626 36.496 40.233 35.319 C 38.969 31.485 38.327 27.474 38.333 23.438 C 38.333 21.607 36.833 20.109 35 20.109 L 23.333 20.109 C 21.5 20.109 20 21.607 20 23.438 C 20 54.689 45.367 80.016 76.667 80.016 C 78.5 80.016 80 78.518 80 76.688 L 80 65.039 C 80 63.209 78.5 61.711 76.667 61.711 Z  M 73.333 50.063 L 80 50.063 C 80 33.52 66.569 20.109 50 20.109 L 50 26.766 C 62.9 26.766 73.333 37.183 73.333 50.063 Z  M 60 50.063 L 66.667 50.063 C 66.667 40.877 59.2 33.422 50 33.422 L 50 40.078 C 55.533 40.078 60 44.538 60 50.063 Z " fill="rgb(67,160,71)"/></g></g></svg>