<?xml version="1.0" encoding="UTF-8" standalone="no"?><!-- Generator: Gravit.io --><svg xmlns="http://www.w3.org/2000/svg" xmlns:xlink="http://www.w3.org/1999/xlink" style="isolation:isolate" viewBox="0 0 100 100" width="100pt" height="100pt"><defs><clipPath id="_clipPath_b2FVXoa750xlRZT8aC3GJOhfjMCARdW4"><rect width="100" height="100"/></clipPath></defs><g clip-path="url(#_clipPath_b2FVXoa750xlRZT8aC3GJOhfjMCARdW4)"><path d=" M 50 10 C 28.015 10 10 29.441 10 53.164 C 10 62.089 12.345 70.297 16.348 77.134 C 16.768 77.891 17.449 78.436 18.243 78.65 C 19.036 78.864 19.875 78.728 20.575 78.273 C 21.278 77.82 21.785 77.084 21.984 76.227 C 22.182 75.37 22.056 74.464 21.634 73.707 C 21.899 73.685 22.159 73.615 22.403 73.501 L 25.769 71.841 C 26.948 71.339 27.58 69.954 27.232 68.64 C 26.883 67.326 25.668 66.511 24.422 66.758 L 24.135 66.758 C 24.002 66.813 23.873 66.882 23.751 66.964 L 20.385 68.624 C 20.002 68.805 19.67 69.091 19.422 69.454 C 17.605 65.171 16.531 60.565 16.252 55.864 C 16.406 55.874 16.575 55.874 16.729 55.864 L 20.769 55.864 C 22.151 55.864 23.271 54.655 23.271 53.164 C 23.271 51.673 22.151 50.465 20.769 50.465 L 16.249 50.465 C 16.563 45.77 17.788 41.334 19.615 37.29 C 19.796 37.419 19.99 37.523 20.194 37.602 L 23.557 39.571 C 24.752 40.283 26.256 39.82 26.923 38.535 C 27.582 37.244 27.152 35.621 25.96 34.902 L 22.597 32.93 C 22.413 32.835 22.219 32.765 22.018 32.724 C 24.417 28.935 27.449 25.662 30.96 23.072 C 31.037 23.257 31.134 23.432 31.249 23.593 L 33.366 27.638 C 34.06 28.924 35.585 29.364 36.782 28.624 C 37.97 27.874 38.377 26.231 37.692 24.941 L 35.48 20.997 C 35.382 20.77 35.252 20.561 35.095 20.376 C 39.003 18.301 43.317 17.056 47.883 16.744 C 47.874 16.916 47.874 17.089 47.883 17.262 L 47.883 21.933 C 47.8 22.929 48.246 23.902 49.04 24.437 C 49.838 24.955 50.836 24.955 51.634 24.437 C 52.426 23.904 52.872 22.936 52.788 21.933 L 52.788 17.262 C 52.8 17.125 52.8 16.987 52.788 16.85 C 57.074 17.229 61.253 18.496 65.095 20.582 C 64.99 20.712 64.894 20.85 64.809 20.997 L 62.594 24.941 C 61.908 26.233 62.318 27.88 63.511 28.627 C 64.707 29.365 66.231 28.923 66.923 27.638 L 69.04 23.593 C 69.115 23.462 69.179 23.323 69.231 23.178 C 77.646 29.436 82.984 39.468 83.751 50.465 L 79.323 50.465 C 77.942 50.523 76.865 51.778 76.918 53.269 C 76.972 54.76 78.135 55.921 79.517 55.864 L 83.748 55.864 C 83.476 60.468 82.399 64.974 80.572 69.145 C 80.378 68.932 80.151 68.755 79.902 68.624 L 76.535 66.964 C 76.084 66.74 75.582 66.668 75.092 66.758 C 73.995 66.93 73.141 67.877 73.012 69.065 C 72.871 70.247 73.495 71.39 74.517 71.841 L 77.88 73.501 C 77.942 73.541 78.012 73.578 78.074 73.604 C 77.144 75.151 77.553 77.218 78.986 78.221 C 80.42 79.224 82.335 78.783 83.265 77.237 C 87.631 70.35 90 62.086 90 53.164 C 90 29.441 71.985 10 50 10 Z  M 75.865 36.875 L 52.308 47.666 C 51.662 47.367 50.985 47.148 50.289 47.148 C 47.212 47.148 44.809 49.844 44.809 53.164 C 44.809 56.485 47.209 59.184 50.286 59.184 C 53.172 59.184 55.588 56.823 55.865 53.785 L 76.154 37.184 L 75.865 36.875 Z  M 37.117 76.407 C 35.645 76.709 34.589 78.111 34.615 79.727 L 34.615 86.68 C 34.615 88.506 36 90 37.692 90 L 62.597 90 C 64.289 90 65.674 88.506 65.674 86.68 L 65.674 79.727 C 65.674 77.901 64.289 76.407 62.597 76.407 L 37.114 76.407 L 37.117 76.407 Z " fill="rgb(67,160,71)"/></g></svg>