<?xml version="1.0" encoding="UTF-8" standalone="no"?><!-- Generator: Gravit.io --><svg xmlns="http://www.w3.org/2000/svg" xmlns:xlink="http://www.w3.org/1999/xlink" style="isolation:isolate" viewBox="0 0 100 100" width="100pt" height="100pt"><defs><clipPath id="_clipPath_ndVlMGFvxCFsmNKZ3wwSPvujIYKLNJp8"><rect width="100" height="100"/></clipPath></defs><g clip-path="url(#_clipPath_ndVlMGFvxCFsmNKZ3wwSPvujIYKLNJp8)"><path d=" M 38 9.75 C 31.357 9.75 25.75 14.679 25.75 20.519 C 25.75 26.359 31.357 31.288 38 31.288 C 42.76 31.288 46.925 28.716 48.938 25.135 L 71.25 25.135 L 74.75 22.058 L 74.75 18.981 L 71.25 15.904 L 67.75 15.904 L 64.905 18.405 L 62.5 15.904 L 59.655 15.904 L 57.579 17.732 L 55.171 15.904 L 48.938 15.904 C 46.929 12.322 42.757 9.75 38 9.75 Z  M 34.5 17.442 C 36.607 17.442 38 18.667 38 20.519 C 38 22.372 36.607 23.596 34.5 23.596 C 32.393 23.596 31 22.372 31 20.519 C 31 18.667 32.393 17.442 34.5 17.442 Z  M 36.579 37.442 C 30.275 37.442 24.658 41.135 22.908 46.673 L 20.388 55.904 L 18.75 55.904 C 16.643 55.904 15.25 57.128 15.25 58.981 L 15.25 62.058 C 15.25 63.91 16.643 65.135 18.75 65.135 L 18.75 86.673 C 18.75 88.525 20.143 89.75 22.25 89.75 L 29.25 89.75 C 31.357 89.75 32.75 88.525 32.75 86.673 L 32.75 83.596 L 67.75 83.596 L 67.75 86.673 C 67.75 88.525 69.143 89.75 71.25 89.75 L 78.25 89.75 C 80.357 89.75 81.75 88.525 81.75 86.673 L 81.75 65.135 C 83.857 65.135 85.25 63.91 85.25 62.058 L 85.25 58.981 C 85.25 57.128 83.857 55.904 81.75 55.904 L 80.108 55.904 L 77.596 46.673 C 75.846 41.135 70.225 37.442 63.921 37.442 L 36.579 37.442 Z  M 36.579 43.596 L 63.921 43.596 C 67.068 43.596 69.896 45.448 70.596 48.212 L 73.546 58.981 L 26.954 58.981 L 29.905 48.212 C 30.605 45.448 33.433 43.596 36.579 43.596 Z  M 31 68.212 C 33.8 68.212 36.25 70.365 36.25 72.827 C 36.25 75.288 33.8 77.442 31 77.442 C 28.2 77.442 25.75 75.288 25.75 72.827 C 25.75 70.365 28.2 68.212 31 68.212 Z  M 69.5 68.212 C 72.3 68.212 74.75 70.365 74.75 72.827 C 74.75 75.288 72.3 77.442 69.5 77.442 C 66.7 77.442 64.25 75.288 64.25 72.827 C 64.25 70.365 66.7 68.212 69.5 68.212 Z " fill="rgb(67,160,71)"/></g></svg>