<?xml version="1.0" encoding="UTF-8" standalone="no"?><!-- Generator: Gravit.io --><svg xmlns="http://www.w3.org/2000/svg" xmlns:xlink="http://www.w3.org/1999/xlink" style="isolation:isolate" viewBox="0 0 100 100" width="100pt" height="100pt"><defs><clipPath id="_clipPath_2NhRSSjrzWDch654BkwHMmUSZTj2DRb8"><rect width="100" height="100"/></clipPath></defs><g clip-path="url(#_clipPath_2NhRSSjrzWDch654BkwHMmUSZTj2DRb8)"><path d=" M 50 10.003 C 27.916 10.003 10 27.916 10 50 C 10 72.084 27.916 90 50 90 C 72.084 90 90 72.084 90 50 C 90 42.384 87.869 35.264 84.171 29.203 C 77.146 17.69 64.466 10 50 10 L 50 10.003 Z  M 50 18.588 C 67.317 18.588 81.415 32.683 81.415 50 C 81.415 67.317 67.317 81.415 50 81.415 C 32.683 81.415 18.585 67.317 18.585 50 C 18.588 32.683 32.686 18.585 50 18.585 L 50 18.588 Z  M 50 22.197 C 42.625 22.194 35.551 25.122 30.337 30.337 C 25.122 35.551 22.194 42.625 22.197 50 C 22.194 57.375 25.122 64.449 30.337 69.663 C 35.551 74.878 42.625 77.806 50 77.803 C 57.375 77.806 64.449 74.878 69.663 69.663 C 74.878 64.449 77.806 57.375 77.803 50 C 77.806 42.625 74.878 35.551 69.663 30.337 C 64.449 25.122 57.375 22.194 50 22.197 L 50 22.197 Z  M 47.268 28.147 L 47.268 28.244 L 46.585 40.341 C 45.367 40.769 44.231 41.378 43.269 42.195 L 32.44 36.829 C 35.939 32.159 41.181 28.903 47.268 28.147 Z  M 52.828 28.147 C 58.644 28.911 63.913 31.967 67.464 36.635 L 56.634 42.099 C 55.705 41.334 54.648 40.738 53.512 40.341 L 52.828 28.244 L 52.828 28.147 Z  M 70.195 41.415 C 70.208 41.402 70.279 41.427 70.292 41.415 C 72.628 46.9 72.628 53.1 70.292 58.585 C 70.279 58.573 70.208 58.598 70.195 58.585 L 60.146 51.951 C 60.255 51.327 60.343 50.659 60.343 50 C 60.343 49.344 60.268 48.67 60.146 48.049 L 70.195 41.415 Z  M 29.611 41.612 C 29.624 41.621 29.696 41.599 29.708 41.612 L 39.854 48.146 C 39.738 48.757 39.673 49.378 39.657 50 C 39.657 50.624 39.745 51.267 39.854 51.854 L 29.708 58.391 C 29.696 58.401 29.624 58.379 29.611 58.391 C 27.403 53.015 27.403 46.985 29.611 41.609 L 29.611 41.612 Z  M 50 45.121 C 52.707 45.121 54.879 47.293 54.879 50 C 54.879 52.707 52.707 54.879 50 54.879 C 48.704 54.884 47.46 54.372 46.544 53.456 C 45.628 52.54 45.116 51.296 45.121 50 C 45.121 47.293 47.293 45.121 50 45.121 Z  M 43.269 57.805 C 44.231 58.635 45.367 59.231 46.585 59.659 L 47.268 71.756 L 47.268 71.853 C 41.181 71.097 35.939 67.841 32.44 63.171 L 43.269 57.805 Z  M 56.634 57.901 L 67.464 63.365 C 63.913 68.033 58.644 71.089 52.828 71.853 L 52.828 71.756 L 53.512 59.659 C 54.648 59.262 55.705 58.666 56.634 57.901 Z " fill="rgb(67,160,71)"/></g></svg>